<svg xmlns="http://www.w3.org/2000/svg" viewBox="0 0 500 500"><g id="freepik--background-complete--inject-4"><path d="M378.09,41.61h42.69S417,34.74,406,35.74c-10.5,1-11-3.38-16.37-3.91S379.87,35.39,378.09,41.61Z" style="fill:#fafafa"></path><path d="M110.43,89.81H195.8s-7.55-13.74-29.52-11.74c-21,1.91-22.06-6.76-32.73-7.83S114,77.36,110.43,89.81Z" style="fill:#fafafa"></path><path d="M60.27,51.63h64.88s-5.74-10.44-22.44-8.92C86.76,44.16,86,37.58,77.84,36.77S63,42.17,60.27,51.63Z" style="fill:#f5f5f5"></path><path d="M.21,101.47a84.49,84.49,0,0,1,76,3.31A85,85,0,0,1,118,168.55c20.64-11,48.34-6.66,64.62,10.15s19.73,44.64,8.06,64.92a89.14,89.14,0,0,1,81.24,14.65c13.69-30.57,51-48.36,83.37-39.74a52.94,52.94,0,0,1,60.5-67.92c-4.5-21.7,4.05-45.58,21.28-59.5s67.27-30,62.65-8.29c-1.71,8.05,0,184,0,184L0,264.73Z" style="fill:#f5f5f5"></path><polygon points="338.4 265.41 369.06 237.03 414.09 219.53 436.6 178.97 500 134.4 500 265.41 338.4 265.41" style="fill:#e0e0e0"></polygon><path d="M0,143.1c0,.83,33.77,9.16,33.77,9.16l54.15,49.16h38.32l38.33,63.31H0Z" style="fill:#e0e0e0"></path><polygon points="500 219.12 456.98 234.41 444.81 246.57 424.33 246.57 372.48 282.39 499.88 282.39 500 219.12" style="fill:#f5f5f5"></polygon></g><g id="freepik--Floor--inject-4"><path d="M477.12,448.47s-.21,0-.6-.09l-1.77-.3-6.89-1.2-26.22-4.63h-.05l0,0-27.15-32.32.15.07-35.16,0,.17-.09-17,22.53-.05.07-.08,0-17.72,4.17.1-.05L321,458.26l-.07.06H270.2l-171.58-.08-52-.08-14.13-.05-3.68,0c-.83,0-1.25,0-1.25,0l1.25,0,3.68,0,14.13,0,52-.09,171.58-.07h50.65l-.17.07,23.86-21.61,0,0h.06l17.73-4.16-.13.08,17-22.5.07-.09h.11l35.16,0h.09l.05.06L441.77,442l-.08,0,26.2,4.76,6.88,1.27,1.75.33Z" style="fill:#263238"></path></g><g id="freepik--Plant--inject-4"><path d="M109.57,456.31c19.38-12.93,24.11-37.39,23.69-59.46-.07-3.68.4-7.55-1.32-10.81s-5.83-5.52-9.19-4c-2.79,1.24-4,4.4-5.64,7a21.73,21.73,0,0,1-8.88,8.12c-2.39,1.18-5.34,1.88-7.66.56-3.19-1.8-3.51-6.19-3.43-9.85l.45-20.47c.08-3.66.15-7.39-1-10.89s-3.6-6.75-7.11-7.78-7.91.91-8.71,4.49a32.79,32.79,0,0,0-.17,4.55c-.13,1.52-.88,3.19-2.34,3.59s-3-.65-4-1.74c-3.77-3.75-6.3-8.55-8.65-13.32s-4.64-9.66-8-13.74-8.17-7.35-13.47-7.73-11,2.78-12.44,7.91,1.54,10.42,4.8,14.65a82.09,82.09,0,0,0,17,16.47c1.16.84,2.41,1.74,2.84,3.1.77,2.46-1.62,4.85-4.07,5.61-2.78.87-5.77.54-8.67.83s-6.05,1.51-7.19,4.19c-1.58,3.72,1.53,7.69,4.61,10.3a71.22,71.22,0,0,0,20.81,12.28c2.71,1,5.57,1.93,7.74,3.86s3.45,5.23,2.08,7.79-4.79,3.34-7.64,2.77-5.39-2.14-8.1-3.19c-5.06-2-11.65-1.73-15,2.57-2.19,2.83-2.44,6.8-1.4,10.23a26.54,26.54,0,0,0,5.48,9.13A71.34,71.34,0,0,0,75.05,454.9c11.77,4.22,22.71,5.48,34.52,1.41" style="fill:#0EA5E9"></path><path d="M108.05,456.74c-3.11-11.17-11.65-37.46-16.73-49.83q-1.93-4.62-3.8-9.14c-1.25-3-2.5-6-3.89-8.8a160.93,160.93,0,0,0-9-15.82c-3.1-4.9-6.22-9.43-9.17-13.65S59.68,351.4,57,348a132,132,0,0,0-14.12-15.2c-1.8-1.66-3.24-2.91-4.22-3.74l-1.13-.94-.4-.31s.12.13.36.35l1.09,1c1,.86,2.38,2.13,4.16,3.81a137.75,137.75,0,0,1,14,15.3c2.71,3.43,5.52,7.32,8.46,11.54s6,8.77,9.12,13.66a162.53,162.53,0,0,1,8.92,15.79C84.53,392,85.76,395,87,398s2.51,6.05,3.8,9.13c5.08,12.36,13.62,38.62,16.75,49.76" style="fill:#263238"></path><path d="M83.49,388.92a9.27,9.27,0,0,0,.36-1.57c.2-1,.45-2.48.74-4.29.57-3.64,1.19-8.69,1.86-14.26s1.38-10.6,2-14.22c.31-1.81.59-3.27.79-4.28a8.85,8.85,0,0,0,.26-1.58,8.51,8.51,0,0,0-.46,1.53c-.28,1-.61,2.45-1,4.26-.75,3.6-1.52,8.64-2.19,14.22S84.65,379.25,84.2,383c-.23,1.75-.42,3.2-.56,4.32A8.89,8.89,0,0,0,83.49,388.92Z" style="fill:#263238"></path><path d="M35.93,379.41a1.53,1.53,0,0,0,.49.08l1.41.15c1.23.11,3,.28,5.18.56,4.36.51,10.36,1.45,16.93,2.77s12.47,2.8,16.7,4c2.12.58,3.82,1.1,5,1.45l1.36.4a2.07,2.07,0,0,0,.49.11,1.77,1.77,0,0,0-.45-.21l-1.33-.5c-1.16-.42-2.85-1-5-1.62-4.21-1.29-10.11-2.82-16.7-4.16s-12.61-2.2-17-2.62c-2.19-.23-4-.34-5.2-.39l-1.42,0A1.72,1.72,0,0,0,35.93,379.41Z" style="fill:#263238"></path><path d="M103.45,441.53a2.52,2.52,0,0,0,.32-.58l.83-1.69c.72-1.48,1.71-3.63,2.89-6.32,2.38-5.36,5.43-12.86,8.69-21.19s6.25-15.84,8.53-21.24c1.13-2.64,2.05-4.81,2.73-6.38l.73-1.73a3.28,3.28,0,0,0,.23-.63,3.14,3.14,0,0,0-.33.58c-.21.44-.49,1-.83,1.69-.72,1.48-1.7,3.64-2.89,6.32-2.37,5.36-5.42,12.86-8.69,21.19s-6.25,15.84-8.53,21.24c-1.13,2.64-2,4.81-2.72,6.38l-.74,1.74A2.82,2.82,0,0,0,103.45,441.53Z" style="fill:#263238"></path><path d="M40.39,420.42a2.69,2.69,0,0,0,.63.26l1.83.62,6.76,2.26c5.71,1.9,13.55,4.64,22.22,7.68S88.36,437,94.1,438.77c2.87.91,5.2,1.62,6.82,2.09l1.87.52a2.69,2.69,0,0,0,.66.15,3,3,0,0,0-.63-.26l-1.84-.62-6.75-2.25c-5.71-1.91-13.56-4.64-22.22-7.68S55.47,425,49.73,423.18c-2.87-.91-5.2-1.62-6.81-2.08l-1.87-.53A5.32,5.32,0,0,0,40.39,420.42Z" style="fill:#263238"></path><path d="M307.19,424c1.61,2.25,4.68,1.47,6.1.08s2-3.41,2.53-5.33c1.22-4.38,2.44-9,1.46-13.41a7.46,7.46,0,0,0-1.74-3.63,3.89,3.89,0,0,0-3.7-1.19c-1.55.43-2.5,2-3.19,3.41a32,32,0,0,0-3,13.74,11,11,0,0,0,1.56,6.33" style="fill:#0EA5E9"></path><path d="M313.24,435.43a13.77,13.77,0,0,1,8.52-1.12,7.13,7.13,0,0,1,4.24,1.84c1.06,1.15,1.28,3.2.08,4.21a4.05,4.05,0,0,1-2.65.7c-2.26,0-4.76-.38-6.55,1-1,.78-1.69,2.07-2.92,2.47a2.92,2.92,0,0,1-3.21-1.4,5,5,0,0,1-.4-3.66A5.59,5.59,0,0,1,313.24,435.43Z" style="fill:#0EA5E9"></path><path d="M302.86,427.31a8.28,8.28,0,0,0,1.21-7.61,14.57,14.57,0,0,0-4.56-6.47,24.18,24.18,0,0,0-8.09-4.67,8.55,8.55,0,0,0-3.63-.58,3.82,3.82,0,0,0-3,1.87c-.83,1.62,0,3.57.9,5.16a61.33,61.33,0,0,0,5.36,8c1.61,2,3.44,4,5.86,4.92s4.93.77,6.2-.92" style="fill:#0EA5E9"></path><path d="M307.41,458.2a5.27,5.27,0,0,0,.13-1c.07-.75.15-1.7.25-2.82a41.54,41.54,0,0,1,.59-4.12,31.27,31.27,0,0,1,1.45-4.88,18.31,18.31,0,0,1,2.44-4.43,9.34,9.34,0,0,1,3.12-2.64,8.83,8.83,0,0,1,2.64-.85,4.54,4.54,0,0,0,1-.16,4.62,4.62,0,0,0-1,0,8,8,0,0,0-2.75.74,9.16,9.16,0,0,0-3.29,2.67,17,17,0,0,0-2.53,4.51,29.55,29.55,0,0,0-1.44,5,33.92,33.92,0,0,0-.51,4.18c-.08,1.19-.1,2.16-.11,2.83A4.69,4.69,0,0,0,307.41,458.2Z" style="fill:#263238"></path><path d="M307.58,456a1.9,1.9,0,0,0,0-.47c0-.36,0-.82,0-1.37,0-1.19,0-2.9,0-5,.06-4.24.37-10.09,1-16.53s1.53-12.24,2.35-16.4c.19-1,.38-2,.57-2.8s.32-1.53.47-2.11.23-1,.31-1.33a1.65,1.65,0,0,0,.07-.47,3.68,3.68,0,0,0-.16.45c-.1.35-.22.78-.38,1.31s-.34,1.28-.54,2.1-.43,1.75-.64,2.79a156.76,156.76,0,0,0-2.48,16.42c-.64,6.45-.9,12.32-.89,16.57,0,2.12.06,3.84.12,5,0,.56.07,1,.1,1.37A2.93,2.93,0,0,0,307.58,456Z" style="fill:#263238"></path><path d="M307.5,444.72a9.17,9.17,0,0,0,0-1.43,37.51,37.51,0,0,0-.48-3.86,51,51,0,0,0-1.31-5.62,49.73,49.73,0,0,0-2.42-6.65,35.62,35.62,0,0,0-7-10.71,19,19,0,0,0-1.64-1.49c-.26-.21-.48-.42-.71-.58l-.63-.43a7.79,7.79,0,0,0-1.21-.76,43.42,43.42,0,0,1,4,3.47,37.59,37.59,0,0,1,6.85,10.67,53.84,53.84,0,0,1,2.44,6.59c.63,2.06,1.06,4,1.39,5.56s.49,2.92.6,3.82A10.32,10.32,0,0,0,307.5,444.72Z" style="fill:#263238"></path><path d="M108.91,438.47c-8-6.55-9-17.63-7.91-27.43.18-1.63.14-3.37,1-4.75s2.79-2.22,4.2-1.41c1.18.67,1.6,2.12,2.18,3.35a9.69,9.69,0,0,0,3.56,4,3.64,3.64,0,0,0,3.34.57c1.48-.67,1.8-2.61,1.92-4.24l.66-9.12a15.21,15.21,0,0,1,.87-4.8,5.06,5.06,0,0,1,3.45-3.17,3.07,3.07,0,0,1,3.63,2.35,13.82,13.82,0,0,1-.11,2,1.72,1.72,0,0,0,.88,1.7,2,2,0,0,0,1.85-.61,21.57,21.57,0,0,0,4.35-5.57,30.41,30.41,0,0,1,4.11-5.78,8.83,8.83,0,0,1,6.24-2.88,5.3,5.3,0,0,1,5.13,4c.41,2.34-1.11,4.57-2.72,6.32a36.28,36.28,0,0,1-8.15,6.62,3,3,0,0,0-1.37,1.27c-.44,1.06.5,2.22,1.55,2.66a18.91,18.91,0,0,0,3.77.73,3.69,3.69,0,0,1,3,2.16c.54,1.71-1,3.35-2.46,4.39a31.26,31.26,0,0,1-9.64,4.6,10.31,10.31,0,0,0-3.56,1.4,3,3,0,0,0-1.24,3.38,3.07,3.07,0,0,0,3.24,1.54,21.18,21.18,0,0,0,3.68-1.08c2.31-.67,5.19-.29,6.48,1.76a5.22,5.22,0,0,1,.19,4.61,12,12,0,0,1-2.79,3.83,31.48,31.48,0,0,1-14.13,8.36c-5.34,1.39-10.2,1.5-15.21-.79" style="fill:#0EA5E9"></path><g style="opacity:0.4"><path d="M108.91,438.47c-8-6.55-9-17.63-7.91-27.43.18-1.63.14-3.37,1-4.75s2.79-2.22,4.2-1.41c1.18.67,1.6,2.12,2.18,3.35a9.69,9.69,0,0,0,3.56,4,3.64,3.64,0,0,0,3.34.57c1.48-.67,1.8-2.61,1.92-4.24l.66-9.12a15.21,15.21,0,0,1,.87-4.8,5.06,5.06,0,0,1,3.45-3.17,3.07,3.07,0,0,1,3.63,2.35,13.82,13.82,0,0,1-.11,2,1.72,1.72,0,0,0,.88,1.7,2,2,0,0,0,1.85-.61,21.57,21.57,0,0,0,4.35-5.57,30.41,30.41,0,0,1,4.11-5.78,8.83,8.83,0,0,1,6.24-2.88,5.3,5.3,0,0,1,5.13,4c.41,2.34-1.11,4.57-2.72,6.32a36.28,36.28,0,0,1-8.15,6.62,3,3,0,0,0-1.37,1.27c-.44,1.06.5,2.22,1.55,2.66a18.91,18.91,0,0,0,3.77.73,3.69,3.69,0,0,1,3,2.16c.54,1.71-1,3.35-2.46,4.39a31.26,31.26,0,0,1-9.64,4.6,10.31,10.31,0,0,0-3.56,1.4,3,3,0,0,0-1.24,3.38,3.07,3.07,0,0,0,3.24,1.54,21.18,21.18,0,0,0,3.68-1.08c2.31-.67,5.19-.29,6.48,1.76a5.22,5.22,0,0,1,.19,4.61,12,12,0,0,1-2.79,3.83,31.48,31.48,0,0,1-14.13,8.36c-5.34,1.39-10.2,1.5-15.21-.79"></path></g><path d="M146.11,384.28a1.07,1.07,0,0,1-.17.15l-.52.39c-.46.35-1.13.85-2,1.53a62.14,62.14,0,0,0-6.76,6.23c-1.33,1.42-2.72,3-4.19,4.79s-3,3.65-4.57,5.7a75.19,75.19,0,0,0-4.58,6.65c-.72,1.2-1.39,2.46-2.06,3.75s-1.36,2.58-2,3.9a151.63,151.63,0,0,0-7,15.24,73.56,73.56,0,0,0-3.77,13.17,53.61,53.61,0,0,0-.87,9.19c0,1.1,0,1.95,0,2.52,0,.27,0,.49,0,.65v.23a.68.68,0,0,1,0-.22c0-.17,0-.38-.06-.66,0-.57-.08-1.42-.1-2.52a51.45,51.45,0,0,1,.78-9.23,72.23,72.23,0,0,1,3.73-13.23,145.53,145.53,0,0,1,7-15.28c.7-1.32,1.38-2.62,2.05-3.91s1.35-2.55,2.08-3.75a74.26,74.26,0,0,1,4.61-6.67c1.56-2,3.13-3.94,4.6-5.69s2.88-3.37,4.23-4.78a57.28,57.28,0,0,1,6.84-6.17c.86-.67,1.55-1.16,2-1.49l.53-.37Z" style="fill:#263238"></path><path d="M123.18,409.56a3.07,3.07,0,0,1-.11-.7c0-.46-.1-1.13-.15-1.95-.1-1.64-.16-3.91-.23-6.42s-.16-4.77-.28-6.4c-.06-.82-.12-1.48-.17-1.94a3.18,3.18,0,0,1,0-.71,3.25,3.25,0,0,1,.15.7c.08.45.17,1.11.26,1.93.18,1.63.31,3.91.37,6.41s.11,4.71.15,6.42c0,.77,0,1.43,0,2A3.53,3.53,0,0,1,123.18,409.56Z" style="fill:#263238"></path><path d="M144.45,407.29a3.28,3.28,0,0,1-.84,0c-.54,0-1.33,0-2.3,0-1.93.06-4.6.23-7.54.55s-5.59.73-7.5,1.08c-1,.17-1.72.32-2.26.43a4.94,4.94,0,0,1-.83.13,4.11,4.11,0,0,1,.81-.25c.52-.14,1.29-.33,2.24-.52,1.9-.41,4.56-.85,7.5-1.17a73.72,73.72,0,0,1,7.58-.46c1,0,1.76,0,2.3,0A4.45,4.45,0,0,1,144.45,407.29Z" style="fill:#263238"></path><path d="M112.21,432.14s0-.09-.12-.26l-.3-.79c-.25-.69-.6-1.68-1-2.93-.82-2.48-1.85-5.94-2.93-9.78s-2.08-7.3-2.85-9.8l-.92-2.95-.25-.81a1.45,1.45,0,0,1-.07-.28s.06.08.13.26l.3.79c.25.68.6,1.68,1,2.92.82,2.49,1.85,5.95,2.93,9.79s2.08,7.3,2.85,9.8l.92,2.95.25.81A1,1,0,0,1,112.21,432.14Z" style="fill:#263238"></path><path d="M140.78,425.35s-.1,0-.29.1l-.83.2-3.06.74c-2.58.62-6.14,1.51-10.07,2.51s-7.5,1.86-10.09,2.42c-1.3.28-2.36.5-3.09.64l-.84.15a1.1,1.1,0,0,1-.3,0l.29-.09.83-.21,3.06-.73c2.58-.62,6.14-1.51,10.07-2.51s7.5-1.86,10.1-2.42c1.3-.29,2.35-.5,3.08-.64l.84-.15A1.73,1.73,0,0,1,140.78,425.35Z" style="fill:#263238"></path></g><g id="freepik--Houses--inject-4"><path d="M357.4,281.52l.36,0,1.07,0,4.1,0,15.09-.08,49.78-.08,49.78.08,15.09.08,4.1,0,1.07,0,.36,0-.36,0-1.07,0-4.1.05-15.09.08-49.78.08L378,281.7l-15.09-.08-4.1-.05-1.07,0Z" style="fill:#263238"></path><polygon points="400.18 281.38 400.18 265.31 410.18 256.83 426.85 256.83 435.03 264.4 435.03 281.16 400.18 281.38" style="fill:#0EA5E9"></polygon><rect x="403.28" y="266.8" width="1.18" height="3.04" style="fill:#263238"></rect><rect x="425.66" y="266.33" width="1.18" height="3.04" style="fill:#263238"></rect><rect x="431.95" y="269.53" width="1.18" height="3.04" style="fill:#263238"></rect><polygon points="400.18 265.31 421.26 265.31 426.85 256.83 410.18 256.83 400.18 265.31" style="fill:#263238"></polygon><polygon points="445.56 281.43 445.56 271.71 451.61 266.58 461.7 266.58 466.65 271.16 466.65 281.3 445.56 281.43" style="fill:#0EA5E9"></polygon><rect x="447.44" y="272.61" width="0.71" height="1.84" style="fill:#263238"></rect><rect x="460.98" y="272.33" width="0.71" height="1.84" style="fill:#263238"></rect><rect x="464.78" y="274.26" width="0.71" height="1.84" style="fill:#263238"></rect><polygon points="445.56 271.71 458.32 271.71 461.7 266.58 451.61 266.58 445.56 271.71" style="fill:#263238"></polygon><path d="M432.79,285.59c0,.15-7.54.26-16.85.26s-16.85-.11-16.85-.26,7.54-.26,16.85-.26S432.79,285.45,432.79,285.59Z" style="fill:#0EA5E9"></path><path d="M425,289.26a63.87,63.87,0,0,1-8.14.14,65.58,65.58,0,0,1-8.13-.38,127.4,127.4,0,0,1,16.27.24Z" style="fill:#0EA5E9"></path><path d="M469.69,285.88c0,.15-5.85.26-13.07.26s-13.08-.11-13.08-.26,5.86-.26,13.08-.26S469.69,285.74,469.69,285.88Z" style="fill:#0EA5E9"></path></g><g id="freepik--Birds--inject-4"><path d="M363.59,56.68s-.95.06-2.65.25a25.58,25.58,0,0,0-7,1.9,26.54,26.54,0,0,0-8.82,6.08,25.42,25.42,0,0,0-6.48,11.39l-.18.71-.31-.67-.76-1.63a26.85,26.85,0,0,0-4.06-5.92,29,29,0,0,0-5-4.4A29.49,29.49,0,0,0,318,59.87a28.06,28.06,0,0,0-7.63-.63c-.9,0-1.6.17-2.08.2a3.65,3.65,0,0,1-.73.05,4.29,4.29,0,0,1,.71-.15,20.47,20.47,0,0,1,2.09-.3,26.09,26.09,0,0,1,7.72.47A29,29,0,0,1,328.59,64a28.38,28.38,0,0,1,5.15,4.45,26.88,26.88,0,0,1,4.14,6l.78,1.67-.49,0a25.51,25.51,0,0,1,6.64-11.6,28.63,28.63,0,0,1,4.52-3.72,28,28,0,0,1,4.5-2.36,24.43,24.43,0,0,1,7.09-1.77,16.87,16.87,0,0,1,2-.07A2.83,2.83,0,0,1,363.59,56.68Z" style="fill:#263238"></path><path d="M370.23,84.89a38,38,0,0,0-2.67,4.25,21.94,21.94,0,0,0-2.27,11.69c0,.38.08.75.12,1.1l.11.88-.56-.68c-2.87-3.49-5.4-6.62-7.22-8.89-.84-1.09-1.55-2-2.11-2.71a5.33,5.33,0,0,1-.72-1,7.74,7.74,0,0,1,.87.91L358,93c1.88,2.21,4.47,5.31,7.34,8.79l-.46.2c0-.36-.09-.74-.13-1.12A21.43,21.43,0,0,1,367.23,89a19.09,19.09,0,0,1,2.07-3.09A6,6,0,0,1,370.23,84.89Z" style="fill:#263238"></path></g><g id="freepik--Character--inject-4"><polygon points="175.17 447.42 170.56 458.16 191.21 457.91 191.65 446.97 175.17 447.42" style="fill:#0EA5E9"></polygon><path d="M191.36,456.06a20.44,20.44,0,0,1-2.89.14c-1.79,0-4.26,0-7,0l-7-.14a21.29,21.29,0,0,1-2.88-.15,20.44,20.44,0,0,1,2.89-.14c1.79,0,4.26,0,7,0l7,.15A20.51,20.51,0,0,1,191.36,456.06Z" style="fill:#263238"></path><path d="M182.75,447.19c.18,0,.22,2,.09,4.35s-.39,4.33-.57,4.32-.22-2-.08-4.35S182.57,447.18,182.75,447.19Z" style="fill:#263238"></path><polyline points="170.59 458.38 191.23 457.69 191.37 455.73 171.63 455.9 170.58 458.15" style="fill:#fff;opacity:0.6000000000000001"></polyline><path d="M263.91,452.61l0-10.42-19.51-.07-.12,15.24,1.21.08c5.38.32,27.39,1.24,31,.16C280.47,456.4,263.91,452.61,263.91,452.61Z" style="fill:#0EA5E9"></path><g style="opacity:0.4"><path d="M272,454.75s5.8,1.7,5.08,2.65-23,.86-32.83,0l0-.44,26,.33S270.86,454.79,272,454.75Z" style="fill:#fff"></path></g><path d="M244,456.91l.34,0,1,.06,3.55.17c3,.12,7.13.23,11.71.25s8.71-.05,11.71-.14l3.54-.13,1-.05.33,0h-1.3l-3.55.06c-3,0-7.13.09-11.7.07s-8.71-.11-11.71-.19l-3.54-.09-1,0A1.8,1.8,0,0,0,244,456.91Z" style="fill:#263238"></path><path d="M270.26,457.56a7.74,7.74,0,0,1,.67-1.69,8.75,8.75,0,0,1,1.21-1.36,2.7,2.7,0,0,0-1.41,1.23A2.6,2.6,0,0,0,270.26,457.56Z" style="fill:#263238"></path><path d="M264.51,454.61c.06,0,.33-.3.62-.74s.48-.84.42-.88-.33.3-.62.75A2.3,2.3,0,0,0,264.51,454.61Z" style="fill:#263238"></path><path d="M262.94,453.77c0,.05.35-.16.69-.46s.57-.58.53-.63-.35.16-.69.46S262.89,453.72,262.94,453.77Z" style="fill:#263238"></path><path d="M262,451.92c0,.07.45.13,1,.14a2.36,2.36,0,0,0,1-.1c0-.07-.45-.13-1-.14A2.36,2.36,0,0,0,262,451.92Z" style="fill:#263238"></path><path d="M261.61,450.62a1.93,1.93,0,0,0,1.13.34,2.08,2.08,0,0,0,1.18-.15,6.57,6.57,0,0,0-1.16-.09A8,8,0,0,0,261.61,450.62Z" style="fill:#263238"></path><path d="M265.18,452.91a3.49,3.49,0,0,0,1.26,0,6.57,6.57,0,0,0,1.33-.29,3.45,3.45,0,0,0,.77-.31.69.69,0,0,0,.31-.39.49.49,0,0,0-.19-.5,2.28,2.28,0,0,0-2.84.66,2.33,2.33,0,0,0-.42.84c0,.21,0,.33,0,.33a3.58,3.58,0,0,1,.57-1.06,2.27,2.27,0,0,1,1.08-.69,1.93,1.93,0,0,1,1.49.1c.2.15.12.39-.1.52a3.41,3.41,0,0,1-.71.29,8,8,0,0,1-1.29.34C265.66,452.88,265.18,452.87,265.18,452.91Z" style="fill:#263238"></path><path d="M265.51,453a1.31,1.31,0,0,0,.14-.87,1.91,1.91,0,0,0-.33-.92,1.26,1.26,0,0,0-1-.64.48.48,0,0,0-.39.57,1.34,1.34,0,0,0,.21.56,3.23,3.23,0,0,0,.59.76,1.93,1.93,0,0,0,.71.52s-.25-.23-.59-.63a4.25,4.25,0,0,1-.52-.75c-.17-.27-.29-.75,0-.8s.64.28.83.53a2.28,2.28,0,0,1,.35.82A6.88,6.88,0,0,1,265.51,453Z" style="fill:#263238"></path><path d="M244.4,451.57c0,.05.55-.05,1.44.06a6.11,6.11,0,0,1,5.09,4.09c.29.84.32,1.4.36,1.4s0-.14,0-.4a5.31,5.31,0,0,0-.21-1.05,5.94,5.94,0,0,0-5.24-4.21,5,5,0,0,0-1.07,0A1.12,1.12,0,0,0,244.4,451.57Z" style="fill:#263238"></path><path d="M246.45,443.46a34.39,34.39,0,0,0-.18,4,32.36,32.36,0,0,0,0,4,37.26,37.26,0,0,0,.18-4A32.36,32.36,0,0,0,246.45,443.46Z" style="fill:#263238"></path><path d="M253.79,455.34a11.23,11.23,0,0,0,2.84.29,11.08,11.08,0,0,0,2.86-.21c0-.07-1.28,0-2.85,0S253.79,455.27,253.79,455.34Z" style="fill:#263238"></path><path d="M250,455.32c-.05,0,.1.27.23.56s.2.55.27.55.1-.31-.05-.65S250,455.27,250,455.32Z" style="fill:#263238"></path><path d="M248.53,453.52c-.05,0,.08.25.28.45s.4.34.45.29-.08-.25-.28-.45S248.58,453.47,248.53,453.52Z" style="fill:#263238"></path><path d="M246.47,452.69c0,.07.27.06.56.17s.49.25.54.21-.11-.32-.46-.44S246.45,452.63,246.47,452.69Z" style="fill:#263238"></path><path d="M245,452.3c0,.06.09.16.25.22s.31.07.34,0-.09-.17-.25-.23S245,452.24,245,452.3Z" style="fill:#263238"></path><g style="opacity:0.30000000000000004"><polygon points="244.25 450.79 263.92 450.81 263.9 448.46 244.32 448.33 244.25 450.79"></polygon></g><polygon points="201.54 249.27 167.53 447.19 195.11 448.33 230.56 276.63 239.71 448.47 270.05 448 259.03 246.28 201.54 249.27" style="fill:#0EA5E9"></polygon><polygon points="201.54 249.27 167.53 447.19 195.11 448.33 230.56 276.63 239.71 448.47 270.05 448 259.03 246.28 201.54 249.27" style="opacity:0.5"></polygon><path d="M239.05,276.47a5.61,5.61,0,0,1-1.09.15l-3,.21c-2.52.17-6,.34-9.83.72s-7.28.89-9.78,1.22l-3,.37a4.16,4.16,0,0,1-1.1.07,4.42,4.42,0,0,1,1.07-.27c.69-.14,1.7-.32,2.94-.54,2.5-.42,5.94-1,9.79-1.37s7.34-.49,9.87-.57c1.26,0,2.28,0,3,0A4,4,0,0,1,239.05,276.47Z" style="fill:#263238"></path><path d="M261.14,264.2a2,2,0,0,1-.74.19,10.21,10.21,0,0,1-2.08.1,12.09,12.09,0,0,1-10.67-7.67,10.32,10.32,0,0,1-.58-2,1.93,1.93,0,0,1,0-.76c.09,0,.26,1.06,1,2.63a12.56,12.56,0,0,0,10.35,7.44C260.06,264.29,261.13,264.11,261.14,264.2Z" style="fill:#263238"></path><path d="M262.76,314.61c7.29,21.86,2.1,38.43,2.1,38.43H250.12L247,315.81Z" style="fill:#263238"></path><path d="M174.12,408.43a41.73,41.73,0,0,1,7-40.45h7.44l-5.89,40.45Z" style="fill:#263238"></path><path d="M265.45,323.79a3,3,0,0,1-.86.33c-.57.17-1.39.41-2.41.66a20.28,20.28,0,0,1-8.25.51,7.38,7.38,0,0,1-2.28-.81,6.15,6.15,0,0,1-1.71-1.47,9.51,9.51,0,0,1-1.7-3.36,18.31,18.31,0,0,1-.53-2.45,2.79,2.79,0,0,1-.08-.92c.09,0,.32,1.28,1,3.26a9.63,9.63,0,0,0,1.72,3.16,6,6,0,0,0,3.72,2.08,22.25,22.25,0,0,0,8.07-.36A29.21,29.21,0,0,1,265.45,323.79Z" style="fill:#455a64"></path><path d="M250.14,354.46c-.08,0,.51-1.65,1.23-4.33a59.81,59.81,0,0,0,1.82-10.64,60.69,60.69,0,0,0-.19-10.8c-.31-2.75-.65-4.44-.56-4.46a5.87,5.87,0,0,1,.33,1.17c.18.76.39,1.87.59,3.25a50.48,50.48,0,0,1-1.64,21.58c-.4,1.34-.78,2.4-1.07,3.12A5.29,5.29,0,0,1,250.14,354.46Z" style="fill:#455a64"></path><path d="M188.23,368.55a3.21,3.21,0,0,1,0,.92c-.07.59-.2,1.44-.41,2.48a42.24,42.24,0,0,1-2.49,7.9l-.58,1.31-.08.17-.19,0c-2.86-.42-5.41-.62-7.24-.72a23.58,23.58,0,0,1-2.95-.22,14.25,14.25,0,0,1,3-.13,56.73,56.73,0,0,1,7.3.55l-.27.15.57-1.29a52.47,52.47,0,0,0,2.61-7.79C187.92,369.82,188.15,368.53,188.23,368.55Z" style="fill:#455a64"></path><path d="M176.57,409.68a5.11,5.11,0,0,0,1.22-.07,4.2,4.2,0,0,0,2.57-1.93,11.4,11.4,0,0,0,1.21-4.78c.21-1.91.45-4,.7-6.16.51-4.37,1-8.32,1.39-11.18.19-1.35.35-2.48.48-3.38a5.51,5.51,0,0,1,.25-1.23,5.92,5.92,0,0,1,0,1.25c-.08.91-.19,2.05-.31,3.4-.29,2.87-.73,6.83-1.24,11.2-.27,2.18-.52,4.25-.75,6.16a11.21,11.21,0,0,1-1.37,4.92,4.28,4.28,0,0,1-2.84,1.93,2.84,2.84,0,0,1-1,0C176.67,409.74,176.57,409.7,176.57,409.68Z" style="fill:#455a64"></path><polygon points="250.52 126.91 276.48 143.13 305.36 122.86 328.83 138.49 328.83 224.73 305.36 212.3 279.38 227.17 250.6 214.79 227.29 224.6 229.75 148.96 250.52 126.91" style="fill:#455a64"></polygon><polygon points="234.41 151.13 231.93 216.4 249.29 209.17 278.02 223.07 303.84 205.43 324.92 218.39 324.92 141.6 306.32 127.55 278.43 149.04 251.35 132.38 234.41 151.13" style="fill:#f5f5f5"></polygon><path d="M324.92,218.39V176.1c-3.37-3.77-9.81-4.52-13.82-1.33-5,4-5.6,12.12-11.16,15.25-2.32,1.3-5.1,1.46-7.62,2.32a14.1,14.1,0,0,0-4.56,24.08l16.08-11Z" style="fill:#e0e0e0"></path><path d="M305.48,128.19,278.43,149l-5.61-3.46c-1.1,3.28-.79,7.18,1.49,9.76a15.14,15.14,0,0,0,.21,5.77,12.28,12.28,0,0,0,8.32,9c4.12,1.12,9-.73,10.94-4.54,1.18-2.34,1.42-5.39,3.6-6.83,2.49-1.65,5.75-.14,8.7.32,6.3,1,12.72-3.8,14.32-10a16.07,16.07,0,0,0-2.3-12.6l-10-7.57A22.75,22.75,0,0,0,305.48,128.19Z" style="fill:#e0e0e0"></path><path d="M269.74,214.57c-2.08-3.34-2.13-7.55-1.67-11.47s1.36-7.83.93-11.75-2.56-8-6.28-9.27c-2.09-.73-4.42-.51-6.54-1.16-3.94-1.21-6.42-5.27-7.15-9.33s-.08-8.21.23-12.32.22-8.45-1.8-12a9.33,9.33,0,0,0-5.62-4.33l-7.43,8.23-2.48,65.27,17.36-7.23L278,223.07l1.64-1.12C275.9,220,271.94,218.08,269.74,214.57Z" style="fill:#e0e0e0"></path><path d="M235.19,184.91a21.92,21.92,0,0,1-1.19,2.16c-.59,1.2-.76,2.29-.91,2.28a3.43,3.43,0,0,1,.44-2.51C234.16,185.54,235.11,184.81,235.19,184.91Z" style="fill:#0EA5E9"></path><path d="M244.34,182c0,.07-.3.11-.75.11s-1.06-.06-1.73,0a15.76,15.76,0,0,1-2.47.21,4,4,0,0,1,2.44-.73,6.71,6.71,0,0,1,1.8.15C244.08,181.81,244.35,181.91,244.34,182Z" style="fill:#0EA5E9"></path><path d="M252.93,186.8c-.11.1-1-.62-2-1.46s-2-1.49-1.9-1.62a4.75,4.75,0,0,1,2.22,1.21C252.33,185.8,253,186.7,252.93,186.8Z" style="fill:#0EA5E9"></path><path d="M258.72,194.91c-.12.08-.81-.81-1.53-2a6.21,6.21,0,0,1-1.1-2.26c.11-.09.8.8,1.54,2A6,6,0,0,1,258.72,194.91Z" style="fill:#0EA5E9"></path><path d="M263.94,203.44c-.12.08-.82-.79-1.58-1.95a6.14,6.14,0,0,1-1.15-2.24c.12-.07.83.8,1.58,1.95A6.4,6.4,0,0,1,263.94,203.44Z" style="fill:#0EA5E9"></path><path d="M271.35,210c0,.06-.31,0-.73-.19a8.18,8.18,0,0,1-1.57-.86c-1.16-.81-1.9-1.68-1.8-1.78s1,.57,2.09,1.35c.56.4,1.09.71,1.45,1S271.38,209.94,271.35,210Z" style="fill:#0EA5E9"></path><path d="M281.09,211.66a7.62,7.62,0,0,1-5-.16,9.24,9.24,0,0,1,2.5,0A8.52,8.52,0,0,1,281.09,211.66Z" style="fill:#0EA5E9"></path><path d="M290.51,208.55a5,5,0,0,1-2.1,1.4,4.89,4.89,0,0,1-2.44.68,8.51,8.51,0,0,1,2.22-1.15A8.07,8.07,0,0,1,290.51,208.55Z" style="fill:#0EA5E9"></path><path d="M297.81,201.8a5.3,5.3,0,0,1-1.39,2.11c-.93,1-1.85,1.72-1.94,1.61s.64-.94,1.55-2S297.69,201.71,297.81,201.8Z" style="fill:#0EA5E9"></path><path d="M302.56,193a9.18,9.18,0,0,1-2.07,4.55,7.35,7.35,0,0,1,.87-2.34A7.61,7.61,0,0,1,302.56,193Z" style="fill:#0EA5E9"></path><path d="M305,183.35a8.86,8.86,0,0,1-.89,4.92,7.65,7.65,0,0,1,.28-2.49A7.55,7.55,0,0,1,305,183.35Z" style="fill:#0EA5E9"></path><path d="M303.39,173.61a4.42,4.42,0,0,1,1.21,2.23,4.52,4.52,0,0,1,.29,2.52,9.76,9.76,0,0,1-.79-2.36A11.6,11.6,0,0,1,303.39,173.61Z" style="fill:#0EA5E9"></path><path d="M295.89,167.33a4.68,4.68,0,0,1,2.39.83c1.24.68,2,1.52,1.94,1.63a11.12,11.12,0,0,1-2.19-1.18A9.47,9.47,0,0,1,295.89,167.33Z" style="fill:#0EA5E9"></path><path d="M286.05,166a5.15,5.15,0,0,1,2.51-.29,5,5,0,0,1,2.48.46,21.55,21.55,0,0,1-5-.17Z" style="fill:#0EA5E9"></path><path d="M277.09,163.45c.15-.07.57,1,1.73,1.63s2.26.8,2.23,1a3.35,3.35,0,0,1-2.5-.52,3.3,3.3,0,0,1-1.29-1.33C277.05,163.77,277,163.47,277.09,163.45Z" style="fill:#0EA5E9"></path><path d="M282.33,156c0,.07-.2.25-.57.5s-.93.53-1.47.92c-1.11.77-1.88,1.56-2,1.47s.52-1.08,1.7-1.89a6.65,6.65,0,0,1,1.6-.83C282,156,282.3,155.89,282.33,156Z" style="fill:#0EA5E9"></path><path d="M292.08,154.3a8.93,8.93,0,0,1-2.49.2,8.48,8.48,0,0,1-2.49,0,4.89,4.89,0,0,1,2.47-.51A4.77,4.77,0,0,1,292.08,154.3Z" style="fill:#0EA5E9"></path><path d="M301.57,157.31a6.45,6.45,0,0,1-2.39-.78,7.51,7.51,0,0,1-2.23-1.14,5.37,5.37,0,0,1,2.43.66A6,6,0,0,1,301.57,157.31Z" style="fill:#0EA5E9"></path><path d="M310.89,160.84a5,5,0,0,1-2.49-.38,6.3,6.3,0,0,1-2.28-1.09,6,6,0,0,1,2.44.6A7.68,7.68,0,0,1,310.89,160.84Z" style="fill:#0EA5E9"></path><path d="M320.54,159.27c.09.11-.8.89-2.15,1.36a4.22,4.22,0,0,1-2.51.33,12.05,12.05,0,0,1,2.34-.82A16.22,16.22,0,0,1,320.54,159.27Z" style="fill:#0EA5E9"></path><path d="M195.62,175a2.07,2.07,0,0,1,.1.45c.06.35.12.78.21,1.29.17,1.21.4,2.81.68,4.76.57,4.09,1.35,9.61,2.21,15.7s1.6,11.7,2.08,15.73c.23,2,.41,3.65.52,4.78,0,.52.08.95.11,1.3a1.35,1.35,0,0,1,0,.46,2.07,2.07,0,0,1-.1-.45l-.21-1.29c-.17-1.2-.4-2.81-.68-4.76-.58-4.09-1.35-9.6-2.22-15.7s-1.6-11.69-2.07-15.72c-.24-2-.41-3.65-.52-4.78,0-.52-.08-.95-.11-1.31A1.38,1.38,0,0,1,195.62,175Z" style="fill:#263238"></path><path d="M223.35,99.53l-2.26,45.8,19.61,1.85,1.09-11.12s6.91,1.71,9-4.69c1.35-4.09,2.54-36.1,2.54-36.1Z" style="fill:#ffbe9d"></path><path d="M255,100.61c.55,4.29-5.45,6.77-5.45,6.77l-1,10.14a20.33,20.33,0,0,0-2.82,0c.5-4.76-5.62-3.83-6.25-.59s3,5.2,3,5.2c-2.46,3.77-3.45,5.75-6.93,9.28-3.77,3.82-5.79,4.12-9.68,4l-4.29-.2s-1.52-3.66-2.64-12.3c-.54-4.16-3.78-9.61-2.86-16.37,2.63-19.22,21-17.19,21-17.19C246.62,89.61,253.77,90.67,255,100.61Z" style="fill:#263238"></path><path d="M249.85,107.06a14.5,14.5,0,0,0,9.29-9.9,7.13,7.13,0,0,0-.35-5.32c-.9-1.58-3.05-2.53-4.64-1.65a5.32,5.32,0,0,0-10.34-1.76A4.78,4.78,0,0,0,238.52,87a6.77,6.77,0,0,0-4,4.08,11.83,11.83,0,0,0-.48,5.79" style="fill:#263238"></path><path d="M218.09,115.42c-3.5-3.44-4.57-7-4.18-11.92a18.93,18.93,0,0,1,14.45-28.33,8.13,8.13,0,0,1,4.9.74,3.86,3.86,0,0,1,2,4.24c-.51,1.61-2.85,2.43-4,1.22,3.83,2.27,7.73,4.62,10.6,8s4.56,8.14,3.24,12.4c-1.09,3.48-4,6.09-6.91,8.23-5.8,4.23-13.17,7.46-20,5.4" style="fill:#0EA5E9"></path><path d="M239.78,86.79a5.41,5.41,0,0,1-.14,1.37,17.92,17.92,0,0,1-1,3.61,20,20,0,0,1-19.54,12.72,17.71,17.71,0,0,1-3.72-.53,5.39,5.39,0,0,1-1.3-.43,33.19,33.19,0,0,0,5,.59,20.24,20.24,0,0,0,19.19-12.49A35.08,35.08,0,0,0,239.78,86.79Z" style="fill:#263238"></path><path d="M226.74,115.69a4.63,4.63,0,0,1-2-.65,9.34,9.34,0,0,1-5.11-8.44,4.51,4.51,0,0,1,.37-2.09c.08,0-.07.81,0,2.08a10.38,10.38,0,0,0,1.43,4.69,10.19,10.19,0,0,0,3.49,3.44C226,115.37,226.77,115.61,226.74,115.69Z" style="fill:#263238"></path><path d="M233.89,112.69a4.11,4.11,0,0,1-1.71-.72,10.33,10.33,0,0,1-4.76-7.35,4.49,4.49,0,0,1,0-1.86,15.15,15.15,0,0,1,.33,1.8,12.16,12.16,0,0,0,1.63,4,12,12,0,0,0,3,3.12A15.6,15.6,0,0,1,233.89,112.69Z" style="fill:#263238"></path><path d="M241.22,107.84a38.59,38.59,0,0,0-3.29-4.88,39.93,39.93,0,0,0-4.36-4,12.18,12.18,0,0,1,4.75,3.62A12,12,0,0,1,241.22,107.84Z" style="fill:#263238"></path><path d="M245.48,100.24c-.18.09-.92-2.36-3-4.49s-4.67-2.6-4.59-2.77a3.56,3.56,0,0,1,1.6.3,8.66,8.66,0,0,1,3.35,2.1A10.69,10.69,0,0,1,245,98.67,4.18,4.18,0,0,1,245.48,100.24Z" style="fill:#263238"></path><g style="opacity:0.2"><path d="M213.09,102.06c2.36.73,4.95,0,7.08-1.28s4-2.94,6-4.3a6.67,6.67,0,0,1,2.32-1.09,2.76,2.76,0,0,1,2.42.6,2.66,2.66,0,0,1,.56,2.63,5.08,5.08,0,0,1-1.62,2.27c-3.05,2.67-7.41,3.13-11.47,3.23a8.14,8.14,0,0,1-2.74-.25,3,3,0,0,1-2-1.77"></path></g><path d="M232.21,89.83a3.13,3.13,0,0,1-.4.86c-.29.54-.74,1.3-1.32,2.22A27,27,0,0,1,225,99.4a15,15,0,0,1-7.81,3.37,10.41,10.41,0,0,1-2.61-.08,3,3,0,0,1-.92-.25,20.6,20.6,0,0,0,3.48,0,15.53,15.53,0,0,0,7.53-3.4,30.12,30.12,0,0,0,5.56-6.29C231.42,90.93,232.14,89.79,232.21,89.83Z" style="fill:#263238"></path><path d="M227.64,95.59a8.68,8.68,0,0,0,.18,3.47,8.79,8.79,0,0,0,1.92,2.9c0,.05-.43-.09-1-.53a5,5,0,0,1-1.46-2.2,5.08,5.08,0,0,1-.14-2.64C227.34,95.92,227.59,95.57,227.64,95.59Z" style="fill:#263238"></path><path d="M234.73,78.69s-.36-.24-1.06-.57a6.44,6.44,0,0,0-3.17-.52,7.64,7.64,0,0,0-4.35,1.78A11.17,11.17,0,0,0,223,84.26a15.44,15.44,0,0,0-.9,5.82,7.11,7.11,0,0,0,1.67,4.38,5.59,5.59,0,0,0,2.67,1.73c.75.19,1.19.15,1.19.2s-.11,0-.32.06a4.16,4.16,0,0,1-.91-.07,5.47,5.47,0,0,1-2.91-1.67,7.4,7.4,0,0,1-1.87-4.6,15.24,15.24,0,0,1,.89-6A11.24,11.24,0,0,1,225.84,79a7.8,7.8,0,0,1,4.64-1.79,6.26,6.26,0,0,1,3.28.71,3.73,3.73,0,0,1,.75.52C234.67,78.6,234.75,78.67,234.73,78.69Z" style="fill:#263238"></path><path d="M221.5,101.25a1.23,1.23,0,0,1-.42,0,7,7,0,0,1-1.18-.31,8.28,8.28,0,0,1-3.61-2.64,10.54,10.54,0,0,1-2.19-6.23,14.92,14.92,0,0,1,2-7.86A15.26,15.26,0,0,1,228,76.34a14.83,14.83,0,0,1,4.46.22,8.6,8.6,0,0,1,1.18.31c.26.09.4.14.39.16a18.9,18.9,0,0,0-6-.33,15.72,15.72,0,0,0-6.1,2.09,15.31,15.31,0,0,0-5.43,5.65A14.77,14.77,0,0,0,214.58,92a10.41,10.41,0,0,0,2,6,8.49,8.49,0,0,0,3.39,2.67C220.92,101.14,221.51,101.2,221.5,101.25Z" style="fill:#263238"></path><path d="M238.36,92.61a6.54,6.54,0,0,0-.81-3.28A7.45,7.45,0,0,0,235,86.74a17.45,17.45,0,0,0-4.18-1.82,5.69,5.69,0,0,1-2.18-1.2,2.43,2.43,0,0,1,.35-4,3.5,3.5,0,0,1,1.76-.58,6.78,6.78,0,0,1,2.55.46,2.74,2.74,0,0,1,.86.39,4.2,4.2,0,0,1-.92-.2,7.54,7.54,0,0,0-2.47-.28,3.08,3.08,0,0,0-1.53.56,2.24,2.24,0,0,0-1,1.49,2.09,2.09,0,0,0,.73,1.78,5.5,5.5,0,0,0,2,1.08,17,17,0,0,1,4.27,1.91,7.61,7.61,0,0,1,2.62,2.82,5.4,5.4,0,0,1,.63,2.52A2.11,2.11,0,0,1,238.36,92.61Z" style="fill:#263238"></path><path d="M321.42,180.72l4.24-1.83c3.72-2,5.86-3,6.51-4.45.87-2-1.69-2.5-1.69-2.5s2.4-2.14,1.42-3.74a1.84,1.84,0,0,0-2-.66s2.07-2,2.13-3.24c.08-1.68-2-1.7-2-1.7,2.5-3.49,1.33-5.42.47-5.3s-3,2.44-3,2.44c-2,1.56-7.24,5.95-6.39,1.66s-.12-7.89-1.06-8.68-2.39.22-2.07,1.54a16.21,16.21,0,0,1,0,4.4,10.58,10.58,0,0,1-.95,3.4c-.6,1.24-1.15,2.28-1.65,3.14l-2.26,5.25Z" style="fill:#ffbe9d"></path><path d="M240.36,169.59l30.43,41.62a13.2,13.2,0,0,0,19.55,2l33.79-30.78-12.26-14.76-28.33,21.84L262.75,155a13.34,13.34,0,0,0-18.58-3.35h0A13.36,13.36,0,0,0,240.36,169.59Z" style="fill:#0EA5E9"></path><path d="M245.2,176.27a4.47,4.47,0,0,1,.64.87l1.62,2.46c1.37,2.07,3.27,4.92,5.47,8s4.26,5.82,5.77,7.79l1.79,2.34a4.27,4.27,0,0,1,.61.9,4.84,4.84,0,0,1-.77-.77c-.47-.52-1.12-1.28-1.92-2.24-1.59-1.91-3.7-4.62-5.91-7.71s-4.06-6-5.35-8.12c-.64-1.06-1.15-1.93-1.48-2.54A4.41,4.41,0,0,1,245.2,176.27Z" style="fill:#455a64"></path><path d="M186.05,184.92s-5.35,23.3-5.42,26.4c-.09,4.06,5.07,11.06,9.81,12,7.57,1.52,14.92-5.1,14.92-5.1l.92-31.25Z" style="fill:#0EA5E9"></path><path d="M185.49,187.38s4.44-35.36,21.1-39.77,14.5-2.28,14.5-2.28l14,1.66a30.19,30.19,0,0,1,26.47,26.86l-.38,31.41s3.55,22.54,3.55,24c0,9.14-3.55,19-3.55,19L201.26,251s-3.84-1.39-5.66-7.06S201.53,219,201.53,219Z" style="fill:#0EA5E9"></path><g style="opacity:0.2"><path d="M247,178.71a148.51,148.51,0,0,0,7.67,37.87,30.85,30.85,0,0,0,3.09,6.91c.68,1,1.74,2.14,3,1.94a2.46,2.46,0,0,0,1.81-1.83,7.2,7.2,0,0,0,.07-2.7c-.8-8-.68-14.33-1.47-22.27"></path></g><path d="M227.79,175.69c-.14-1.65,5.89-28.38,5.89-28.38l11.64,2.38-7.11,27.81Z" style="fill:#263238"></path><path d="M238.1,230.46c8.71-.79,19.86-21.29,23.28-33,2.47,18-8.77,36-21.8,46" style="fill:#263238"></path><path d="M173.61,192.79l-5.65,0c-.3,2.57.92,5.23.12,7.69a10.82,10.82,0,0,1-1.54,3c-1.15,1.61-1.13,13.34-.14,17.38h6.76Z" style="fill:#0EA5E9"></path><path d="M253.1,170.39H160.27c-3.59-10.13-5-19.87,0-28.46H253.1C260.22,151.07,258.39,160.65,253.1,170.39Z" style="fill:#455a64"></path><path d="M195.18,264.83c-13.38,1.28-16.68-2.61-20-8.62s-3.2-13.28-3-20.15q.6-17.91,1.21-35.81c.26-7.94-.44-16.51,3.64-23.32s10.32-9.06,19.87-8.49l22.95.6c11.93.31,21.44,4.77,21.1,18.21l.34,61.46a15.48,15.48,0,0,1-15.16,15.47Z" style="fill:#263238"></path><rect x="188.42" y="141.17" width="3.98" height="29.98" style="fill:#263238"></rect><rect x="220.83" y="141.09" width="3.98" height="29.98" style="fill:#263238"></rect><path d="M236.51,175.69v.25c0,.2,0,.45,0,.75-.05.66-.09,1.64-.29,2.88a45.32,45.32,0,0,1-2.61,10.29,40.34,40.34,0,0,1-3.28,6.59,29.82,29.82,0,0,1-5.37,6.51l-1.73,1.47c-.62.45-1.28.85-1.93,1.28a8.83,8.83,0,0,1-1,.62l-1.07.52a15.7,15.7,0,0,1-2.22,1l-2.34.76c-.81.19-1.63.31-2.46.47-.41.06-.83.17-1.25.2l-1.27.07c-.85,0-1.71.12-2.56.09a47.37,47.37,0,0,1-9.95-1.23,31.94,31.94,0,0,1-8.65-3.49,24,24,0,0,1-6.42-5.48l-1.2-1.55c-.37-.52-.66-1.08-1-1.61a21.11,21.11,0,0,1-1.56-3.17,33,33,0,0,1-2.2-10.38c0-1.25,0-2.23,0-2.89,0-.3,0-.55,0-.75a.13.13,0,1,1,.06,0l0,.75q0,1,.09,2.88a34.12,34.12,0,0,0,2.34,10.25,21.61,21.61,0,0,0,1.57,3.11c.32.51.61,1.06,1,1.57l1.19,1.51a23.86,23.86,0,0,0,6.33,5.35,31.57,31.57,0,0,0,8.54,3.4,46.71,46.71,0,0,0,9.82,1.21c.85,0,1.69-.06,2.53-.09l1.25-.06c.41,0,.81-.14,1.22-.2.81-.16,1.62-.28,2.41-.46l2.29-.74a15.08,15.08,0,0,0,2.18-.94l1.05-.51a8.85,8.85,0,0,0,1-.6c.64-.42,1.3-.81,1.9-1.25l1.71-1.43a29.34,29.34,0,0,0,5.32-6.39,40.17,40.17,0,0,0,3.3-6.49A48,48,0,0,0,236,179.54c.23-1.23.3-2.2.39-2.86,0-.3.07-.54.09-.74A.83.83,0,0,1,236.51,175.69Z" style="fill:#455a64"></path><rect x="196.18" y="198.24" width="14.37" height="4.01" style="fill:#0EA5E9"></rect><rect x="218.02" y="186.97" width="2.53" height="58.02" style="fill:#455a64"></rect><rect x="216.31" y="234.91" width="6.5" height="1.53" style="fill:#455a64"></rect><rect x="185.83" y="186.97" width="2.53" height="57.46" style="fill:#455a64"></rect><rect x="184.13" y="234.35" width="6.5" height="1.53" style="fill:#455a64"></rect><path d="M235.14,184s0,.12,0,.34,0,.56-.07,1c-.07.88-.17,2.13-.3,3.73-.26,3.24-.61,7.93-.89,13.74s-.47,12.72-.44,20.41c0,3.84.1,7.87.26,12.05.07,2.09.19,4.22.06,6.4a17.71,17.71,0,0,1-1.44,6.47,10.51,10.51,0,0,1-4.39,5,15.81,15.81,0,0,1-6.23,1.64c-4.18.33-8.22.49-12.07.56-7.69.15-14.62-.09-20.43-.42-2.91-.19-5.53-.3-7.84-.64a14.15,14.15,0,0,1-5.6-1.94,8.71,8.71,0,0,1-2.67-2.64,5.39,5.39,0,0,1-.56-1.18s.18.41.65,1.12a8.72,8.72,0,0,0,2.69,2.52,14,14,0,0,0,5.54,1.83c2.27.31,4.91.4,7.81.56,5.8.29,12.72.48,20.4.31,3.84-.09,7.88-.25,12-.59a15.3,15.3,0,0,0,6-1.59,9.9,9.9,0,0,0,4.16-4.72,17.08,17.08,0,0,0,1.41-6.28c.12-2.14,0-4.26-.06-6.35Q233,229,233,223.19c0-7.69.23-14.62.55-20.43s.73-10.5,1.05-13.74c.16-1.62.3-2.87.41-3.72l.12-1A1.45,1.45,0,0,1,235.14,184Z" style="fill:#455a64"></path><path d="M238.1,259.36a24.56,24.56,0,0,0-2.52-5.72,24,24,0,0,0-4.3-4.55,4.93,4.93,0,0,1,1.63.94,13.61,13.61,0,0,1,5,7.47A4.82,4.82,0,0,1,238.1,259.36Z" style="fill:#455a64"></path><path d="M214.62,222a5.13,5.13,0,0,1,0,.63c0,.5,0,1.13.06,1.92a25.26,25.26,0,0,1-.05,3.08,10.81,10.81,0,0,1-1.17,3.88,11.4,11.4,0,0,1-8.34,6,11.49,11.49,0,0,1-6.18-.77,12.1,12.1,0,0,1-2.83-1.75,11.89,11.89,0,0,1-2.27-2.57,11.32,11.32,0,0,1-1.76-5.25c-.09-1.81,0-3.5,0-5.15v-.25h.25l16.1.12,4.59.07,1.2,0a1.87,1.87,0,0,1,.4,0l-.46,0-1.25,0-4.65.07-15.93.11.25-.24c0,1.63,0,3.38,0,5.11a10.8,10.8,0,0,0,1.69,5,11.27,11.27,0,0,0,2.16,2.45,11.7,11.7,0,0,0,2.7,1.68,11,11,0,0,0,5.91.76,10.62,10.62,0,0,0,5-2.08,11,11,0,0,0,4.3-7.34,28.35,28.35,0,0,0,.14-3c0-.79,0-1.42.06-1.91A5.09,5.09,0,0,1,214.62,222Z" style="fill:#455a64"></path><path d="M173,212.16h-9s.9,23.59,8.25,23.9Z" style="fill:#455a64"></path><path d="M173.61,195.26a15,15,0,0,1-5.56,0,15,15,0,0,1,5.56,0Z" style="fill:#263238"></path><path d="M188.36,265l.24,0,.71,0,2.71-.12,10-.34,14.81-.44,8.75-.24c1.51-.07,3.08,0,4.6-.18a13.15,13.15,0,0,0,4.46-1.31,12.37,12.37,0,0,0,3.69-2.82,8.73,8.73,0,0,0,2.14-3.91,36,36,0,0,0,.66-8.64c0-5.57,0-10.58,0-14.82s.06-7.58.08-10c0-1.14,0-2.05.05-2.71,0-.29,0-.52,0-.71a.64.64,0,0,1,0-.24.75.75,0,0,1,0,.24c0,.19,0,.42,0,.71,0,.66,0,1.57,0,2.71,0,2.41.05,5.81.09,10s0,9.25.06,14.82a36.35,36.35,0,0,1-.64,8.77,9.26,9.26,0,0,1-2.26,4.12,12.64,12.64,0,0,1-3.84,2.94,13.43,13.43,0,0,1-4.63,1.37c-1.61.15-3.12.11-4.65.17l-8.74.21-14.82.33L192,265l-2.72,0h-.7A.77.77,0,0,1,188.36,265Z" style="fill:#455a64"></path></g></svg>