<svg viewBox="0 0 232.98 62.7" xmlns="http://www.w3.org/2000/svg"><defs><clipPath id="a"><path d="M0 501.6V0h1863.8v501.6H0z"/></clipPath></defs><g clip-path="url(#a)" transform="matrix(.13 0 0 -.13 0 62.7)"><path d="M279.48 235.04c0 5.418-2.847 10.399-7.527 13.086l-124.69 71.758c-2.11 1.238-4.473 1.883-6.868 1.98h-1.289a14.907 14.907 0 01-6.882-1.98l-124.68-71.77a15.116 15.116 0 01-7.54-13.08l.273-193.23c0-2.687 1.395-5.187 3.758-6.504a7.253 7.253 0 017.485 0l74.098 42.43c4.687 2.785 7.543 7.695 7.543 13.066v90.273c0 5.383 2.851 10.363 7.52 13.04l31.55 18.171a14.963 14.963 0 007.546 2.023c2.571 0 5.207-.664 7.493-2.023l31.543-18.172c4.668-2.676 7.531-7.656 7.531-13.039V90.796c0-5.371 2.89-10.312 7.547-13.066l74.082-42.43a7.33 7.33 0 017.527 0c2.297 1.317 3.742 3.817 3.742 6.504l.242 193.22M933.71 134.43c0-1.344-.719-2.59-1.887-3.258l-42.82-24.69a3.782 3.782 0 00-3.762 0l-42.828 24.688a3.759 3.759 0 00-1.883 3.258v49.453c0 1.34.719 2.586 1.879 3.262l42.828 24.734a3.758 3.758 0 003.77 0l42.828-24.734a3.785 3.785 0 001.879-3.262v-49.453zm11.57 366.22a7.535 7.535 0 01-7.484-.082 7.531 7.531 0 01-3.715-6.492v-191.36a5.284 5.284 0 00-2.633-4.563 5.258 5.258 0 00-5.273 0l-31.231 17.992a15.068 15.068 0 01-15.047-.003l-124.73-71.99a15.05 15.05 0 01-7.531-13.043v-144a15.071 15.071 0 017.527-13.047l124.73-72.05a15.073 15.073 0 0115.07 0l124.74 72.039a15.075 15.075 0 017.53 13.047v358.96c0 5.461-2.96 10.492-7.73 13.156l-74.229 41.418M1391.6 185.17a15.055 15.055 0 017.49 13.023v34.895a15.05 15.05 0 01-7.5 13.027l-123.93 71.961a15.092 15.092 0 01-15.1.02l-124.69-71.989a15.058 15.058 0 01-7.53-13.043V89.104c0-5.414 2.91-10.41 7.61-13.086l123.8-70.608a15.05 15.05 0 0114.77-.082l74.95 41.66a7.502 7.502 0 013.87 6.531 7.537 7.537 0 01-3.78 6.582l-125.48 72.023a7.515 7.515 0 00-3.79 6.531v45.118a7.535 7.535 0 003.77 6.523l39.06 22.516a7.522 7.522 0 007.52 0l39.07-22.516a7.535 7.535 0 003.77-6.523v-35.497a7.543 7.543 0 013.77-6.53 7.527 7.527 0 017.54.015l74.69 43.414" fill="#404137" fill-rule="evenodd"/><path d="M506.3 318.85a15.045 15.045 0 0015.054 0l124.72-71.973a15.052 15.052 0 007.535-13.047V89.78a15.075 15.075 0 00-7.527-13.047L521.372 4.699a15.073 15.073 0 00-15.07 0L381.612 76.73a15.07 15.07 0 00-7.532 13.047v144.06a15.049 15.049 0 007.535 13.039l124.7 71.973" fill="#83cd29" fill-rule="evenodd"/><path d="M1633.7 2.64c-4.3 0-8.57 1.126-12.33 3.301l-39.27 23.234c-5.86 3.282-3 4.442-1.07 5.118 7.83 2.714 9.41 3.34 17.76 8.074.87.488 2.02.305 2.92-.223l30.16-17.91c1.1-.605 2.64-.605 3.65 0l117.6 67.88c1.1.624 1.8 1.886 1.8 3.183v135.72c0 1.328-.7 2.57-1.82 3.242l-117.56 67.824c-1.09.633-2.53.633-3.63 0l-117.53-67.844c-1.14-.652-1.86-1.933-1.86-3.222V95.297c0-1.297.72-2.528 1.85-3.145l32.22-18.613c17.48-8.738 28.19 1.555 28.19 11.894v134c0 1.894 1.52 3.39 3.41 3.39h14.92c1.86 0 3.4-1.496 3.4-3.39v-134c0-23.328-12.7-36.707-34.82-36.707-6.8 0-12.15 0-27.09 7.363l-30.84 17.754c-7.62 4.403-12.33 12.637-12.33 21.453v135.72c0 8.82 4.71 17.05 12.33 21.437l117.61 67.957c7.44 4.211 17.33 4.211 24.71 0l117.6-67.957c7.62-4.406 12.35-12.617 12.35-21.437V95.296c0-8.816-4.73-17.02-12.35-21.453l-117.5-67.906a24.668 24.668 0 00-12.38-3.3" fill="#83cd29"/><path d="M1670 96.148c-51.47 0-62.25 23.622-62.25 43.438a3.384 3.384 0 003.4 3.387h15.21a3.41 3.41 0 003.38-2.879c2.29-15.481 9.14-23.293 40.26-23.293 24.77 0 35.32 5.605 35.32 18.75 0 7.578-2.99 13.203-41.49 16.972-32.18 3.184-52.08 10.293-52.08 36.036 0 23.73 20 37.882 53.53 37.882 37.68 0 56.32-13.078 58.68-41.132.09-.969-.25-1.895-.89-2.618-.65-.675-1.55-1.086-2.49-1.086h-15.27c-1.58 0-2.98 1.125-3.3 2.657-3.66 16.289-12.57 21.496-36.73 21.496-27.05 0-30.19-9.426-30.19-16.485 0-8.554 3.71-11.046 40.23-15.878 36.14-4.778 53.31-11.543 53.31-36.946 0-25.625-21.37-40.301-58.63-40.301M1832.2 320.1v-3.485h-9.9v-25.793h-3.99v25.793h-9.86v3.485h23.75M1835.7 320.1h5.69l8.4-24.747 8.37 24.747h5.65v-29.278h-3.79V308.1c0 .605.01 1.589.03 2.957.04 1.406.06 2.89.06 4.464l-8.37-24.699h-3.93l-8.44 24.699v-.878c0-.723 0-1.817.05-3.301.03-1.457.07-2.539.07-3.242v-17.278h-3.79V320.1" fill="#83cd29"/><path d="M1258.2 191.91c.9.52 2 .52 2.89 0l23.94-13.809a2.89 2.89 0 001.44-2.503v-27.637c0-1.035-.55-1.988-1.44-2.504l-23.94-13.809a2.877 2.877 0 00-2.89 0l-23.91 13.809a2.881 2.881 0 00-1.45 2.504v27.637c0 1.035.55 1.988 1.45 2.503l23.91 13.809" fill="#83cd29" fill-rule="evenodd"/></g></svg>