<svg width="1440" height="750" viewBox="0 0 1440 750" fill="none" xmlns="http://www.w3.org/2000/svg">
<g opacity="0.8">
<mask id="mask0_110_88" style="mask-type:alpha" maskUnits="userSpaceOnUse" x="0" y="0" width="1440" height="750">
<rect width="1440" height="750" fill="#0EA5E9"/>
</mask>
<g mask="url(#mask0_110_88)">
<path fill-rule="evenodd" clip-rule="evenodd" d="M105.974 364.488C186.747 379.182 275.381 397.656 319.675 466.781C365.662 538.548 355.208 631.465 329.026 712.581C303.758 790.864 254.051 860.867 180.55 897.805C109.56 933.482 26.3065 928.647 -48.6842 902.402C-119.257 877.702 -170.322 823.147 -211.357 760.644C-256.896 691.282 -314.046 614.018 -290.196 534.546C-266.444 455.402 -176.174 422.986 -100.242 390.392C-34.0619 361.983 35.1168 351.598 105.974 364.488Z" fill="url(#paint0_linear_110_88)"/>
<path fill-rule="evenodd" clip-rule="evenodd" d="M1385.07 373.554C1295.78 361.545 1217.98 307.732 1165.27 234.657C1116.8 167.462 1113.08 83.4665 1116.12 0.672323C1119.34 -86.8216 1120.67 -181.376 1182.84 -243.022C1248.07 -307.7 1347.37 -336.929 1437.2 -317.69C1519.48 -300.066 1564.33 -219.008 1613.55 -150.764C1656.74 -90.8957 1692.65 -28.9989 1698.52 44.5863C1705.69 134.347 1711.64 234.591 1649.53 299.783C1583.9 368.66 1479.36 386.234 1385.07 373.554Z" fill="url(#paint1_linear_110_88)"/>
</g>
</g>
<defs>
<linearGradient id="paint0_linear_110_88" x1="96.4887" y1="356.016" x2="-59.8756" y2="899.864" gradientUnits="userSpaceOnUse">
<stop stop-color="#0EA5E9"/>
<stop offset="1" stop-color="white" stop-opacity="0.4"/>
</linearGradient>
<linearGradient id="paint1_linear_110_88" x1="1385.9" y1="374.353" x2="1438.25" y2="-320.014" gradientUnits="userSpaceOnUse">
<stop stop-color="#0EA5E9"/>
<stop offset="1" stop-color="white" stop-opacity="0.4"/>
</linearGradient>
</defs>
</svg>
