<svg version="1.1" id="Layer_1" xmlns="http://www.w3.org/2000/svg" xmlns:xlink="http://www.w3.org/1999/xlink" x="0px" y="0px" viewBox="0 0 1224 1624" style="enable-background:new 0 0 1224 1624;" xml:space="preserve">
<style type="text/css">
	.st0{fill:#03F2EB;}
	.st1{fill:#5A5A63;}
	.st2{fill:#FFDB63;}
	.st3{fill:#FA8080;}
	.st4{fill:#1F1E37;}
</style>
<polygon id="Fill-1-path-Copy-3" class="st0" points="60,794 57.7,794.9 51.6,797.3 50.3,797.8 49.4,796.7 45.6,791.8 44.1,789.9   46.4,789 52.4,786.5 53.7,786 54.6,787.1 58.4,792 "/>
<polygon id="Fill-1-path-Copy-3_1_" class="st0" points="466,426 463.7,426.9 457.6,429.3 456.3,429.8 455.4,428.7 451.6,423.8   450.1,421.9 452.4,421 458.4,418.5 459.7,418 460.6,419.1 464.4,424 "/>
<polygon id="Fill-1-path-Copy-3_2_" class="st0" points="849,1353 846.7,1353.9 840.6,1356.3 839.3,1356.8 838.4,1355.7   834.6,1350.8 833.1,1348.9 835.4,1348 841.4,1345.5 842.7,1345 843.6,1346.1 847.4,1351 "/>
<polygon id="Fill-1-path-Copy-9" class="st1" points="72.1,1250.1 70.3,1250.8 65.7,1252.6 64.8,1253 64.1,1252.2 61.2,1248.4   60.1,1246.9 61.8,1246.2 66.4,1244.4 67.4,1244 68,1244.8 70.9,1248.6 "/>
<polygon id="Fill-1-path" class="st0" points="1064.9,946.1 1061.1,946.1 1060,949.9 1063.8,949.9 "/>
<polygon id="Fill-1-path-Copy-4" class="st2" points="56.5,510.8 52.7,506 46.9,508.2 50.7,513.1 "/>
<polygon id="Fill-1-path-Copy-4_1_" class="st2" points="597.5,5.8 593.7,1 587.9,3.2 591.7,8.1 "/>
<polygon id="Fill-1-path-Copy-4_2_" class="st2" points="1223.5,1620.8 1219.7,1616 1213.9,1618.2 1217.7,1623.1 "/>
<polygon id="Fill-1-path-Copy-4_3_" class="st2" points="792.5,648.8 788.7,644 782.9,646.2 786.7,651.1 "/>
<polygon id="Fill-1-path-Copy-10" class="st1" points="237.1,134.1 234.3,130 230.1,131.9 232.8,136 "/>
<path id="Fill-1-path-Copy-8" class="st0" d="M65.3,298.1c2-0.6,3.3,1.2,3.9,2.4l0,0l0.1,0c0,0.1,0.7,2.1,2.1,1.8  c1.4-0.4,1-2.5,1-2.6l0,0l1.6-0.3c0.2,1.3,0,3.9-2.2,4.5c-0.3,0.1-0.5,0.1-0.8,0.1c-1.6,0-2.6-1.4-3.1-2.5l0,0l-0.1,0  c0-0.1-0.7-2.1-2.1-1.8c-1.4,0.4-1,2.5-1,2.6l0,0l-1.6,0.3C62.9,301.3,63,298.7,65.3,298.1z"/>
<path id="Fill-1-path-Copy-8_1_" class="st0" d="M954.3,467.1c2-0.6,3.3,1.2,3.9,2.4l0,0l0.1,0c0,0.1,0.7,2.1,2.1,1.8  c1.4-0.4,1-2.5,1-2.6l0,0l1.6-0.3c0.2,1.3,0,3.9-2.2,4.5c-0.3,0.1-0.5,0.1-0.8,0.1c-1.6,0-2.6-1.4-3.1-2.5l0,0l-0.1,0  c0-0.1-0.7-2.1-2.1-1.8c-1.4,0.4-1,2.5-1,2.6l0,0l-1.6,0.3C951.9,470.3,952,467.7,954.3,467.1z"/>
<path id="Fill-1-path-Copy-8_2_" class="st0" d="M477.3,862.1c2-0.6,3.3,1.2,3.9,2.4l0,0l0.1,0c0,0.1,0.7,2.1,2.1,1.8  c1.4-0.4,1-2.5,1-2.6l0,0l1.6-0.3c0.2,1.3,0,3.9-2.2,4.5c-0.3,0.1-0.5,0.1-0.8,0.1c-1.6,0-2.6-1.4-3.1-2.5l0,0l-0.1,0  c0-0.1-0.7-2.1-2.1-1.8c-1.4,0.4-1,2.5-1,2.6l0,0l-1.6,0.3C474.9,865.3,475,862.7,477.3,862.1z"/>
<path id="Fill-1-path_1_" class="st3" d="M1120.7,121.9c0,0.5-2.2,2-6.5,2c-4.3,0-6.5-1.5-6.5-2c0-0.5,2.2-2,6.5-2  C1118.5,119.9,1120.7,121.4,1120.7,121.9L1120.7,121.9z"/>
<path id="Fill-1-path_2_" class="st3" d="M274.5,1138.2c-0.5-0.1-1.4-2.7-0.3-6.8c1.1-4.1,3.1-5.9,3.6-5.8c0.5,0.1,1.4,2.7,0.2,6.8  C277,1136.6,275,1138.3,274.5,1138.2L274.5,1138.2z"/>
<path id="Fill-1-path_3_" class="st3" d="M298.3,654.2c0.2-0.5,2.9-0.9,6.7,0.9c3.9,1.8,5.3,4.1,5,4.6s-2.9,0.9-6.7-0.9  C299.5,656.9,298.1,654.6,298.3,654.2L298.3,654.2z"/>
<path id="Fill-1-path-Copy" class="st3" d="M926.7,244.4c0,0.4-1.5,1.5-4.5,1.5c-3,0-4.5-1.1-4.5-1.5s1.5-1.5,4.5-1.5  C925.2,242.9,926.7,244,926.7,244.4L926.7,244.4z"/>
<polygon id="Fill-1-path_4_" class="st3" points="1154.1,647.9 1155,649.3 1150.9,651.7 1153.2,655.8 1151.8,656.6 1149.5,652.5   1145.4,654.9 1144.6,653.4 1148.6,651.1 1146.3,647 1147.7,646.2 1150.1,650.3 "/>
<polygon id="Fill-1-path_5_" class="st3" points="744.1,957.9 745,959.3 740.9,961.7 743.2,965.8 741.8,966.6 739.5,962.5   735.4,964.9 734.6,963.4 738.6,961.1 736.3,957 737.7,956.2 740.1,960.3 "/>
<polygon id="Fill-1-path_6_" class="st3" points="644.1,1557.9 645,1559.3 640.9,1561.7 643.2,1565.8 641.8,1566.6 639.5,1562.5   635.4,1564.9 634.6,1563.4 638.6,1561.1 636.3,1557 637.7,1556.2 640.1,1560.3 "/>
<polygon id="Fill-1-path_7_" class="st2" points="1084.1,1187.9 1085,1189.3 1080.9,1191.7 1083.2,1195.8 1081.8,1196.6   1079.5,1192.5 1075.4,1194.9 1074.6,1193.4 1078.6,1191.1 1076.3,1187 1077.7,1186.2 1080.1,1190.3 "/>
<polygon id="Fill-1-path_8_" class="st2" points="508.1,1317.9 509,1319.3 504.9,1321.7 507.2,1325.8 505.8,1326.6 503.5,1322.5   499.4,1324.9 498.6,1323.4 502.6,1321.1 500.3,1317 501.7,1316.2 504.1,1320.3 "/>
<polygon id="Fill-1-path-Copy-5" class="st3" points="9.9,125.6 11.9,126.4 9.7,132.3 15.5,134.5 14.8,136.6 8.9,134.3 6.6,140.2   4.6,139.4 6.8,133.5 1,131.3 1.8,129.2 7.6,131.5 "/>
<path id="Fill-1-path_9_" class="st2" d="M1177.6,369.7c4.5,2.7-4.2,17.3-8.8,14.6c-2.3-1.4-1.3-5.7,0.9-9.4  C1172,371.2,1175.3,368.3,1177.6,369.7z"/>
<path id="Fill-1-path_10_" class="st2" d="M139.9,1004.3c-3.9,3.5-15.3-9.1-11.4-12.6c2-1.8,5.9,0.5,8.7,3.6  C140,998.4,141.8,1002.5,139.9,1004.3z"/>
<polygon id="Fill-1-path_11_" class="st4" points="882.1,1503.9 883,1505.3 878.9,1507.7 881.2,1511.8 879.8,1512.6 877.5,1508.5   873.4,1510.9 872.6,1509.4 876.6,1507.1 874.3,1503 875.7,1502.2 878.1,1506.3 "/>
<polygon id="Fill-1-path_12_" class="st0" points="136.5,1506.9 136,1508.4 134.9,1512.3 134.7,1513.1 133.8,1513.1 130,1513.1   128.5,1513.1 128.9,1511.6 130,1507.7 130.3,1506.9 131.1,1506.9 134.9,1506.9 "/>
</svg>