<svg width="1441" height="1811" viewBox="0 0 1441 1811" fill="none" xmlns="http://www.w3.org/2000/svg">
<path d="M0 1H1440V1811H0V1Z" fill="#0EA5E9"/>
<path d="M527.229 1341.39C586.382 1311.68 683.74 1128.53 854.019 1215.81C932.553 1256.07 994.935 1214.1 1061.34 1159.47C1147.87 1069.99 1184.38 1046.1 1296.42 1074.04C1374.87 1093.6 1417.76 1096.29 1439 1074.04L1439 1263.22C1342.14 1352.93 1277.27 1546.61 1137.06 1607.57C1029.17 1654.47 1059.23 1508.3 902.044 1508.3C771.143 1508.3 737.612 1732.97 590.712 1676.85C405.434 1618.27 215.332 1691.17 67.5699 1736L-2.94178e-05 1736L-2.71686e-05 1684.55C66.5873 1619.01 142.558 1528.59 178.441 1468.69C272.638 1397.44 390.339 1451.33 527.229 1341.39Z" fill="url(#paint0_linear_121_126)"/>
<path d="M424.865 717.181C721.655 754.389 867.452 324.271 1058.25 372.458C1203.49 409.143 1382.4 363.443 1440 308.178L1440 585.166C1215.64 748.129 933.241 656.336 808.201 876.3C670.036 1119.35 604.864 907.209 438.291 972.517C338.252 1011.74 180.695 1056.08 96.5768 1115.98C-18.0182 1179.45 58.1363 1114.05 37.9694 953.782C17.8025 793.512 318.46 703.841 424.865 717.181Z" fill="url(#paint1_linear_121_126)"/>
<path d="M0 109.171C561.034 -32.9741 876.252 -37.4811 1440 102.671V0H0V109.171Z" fill="white"/>
<defs>
<linearGradient id="paint0_linear_121_126" x1="-1.47089e-05" y1="1399.5" x2="1439" y2="1399.5" gradientUnits="userSpaceOnUse">
<stop stop-color="#0EA5E9"/>
<stop offset="1" stop-color="white" stop-opacity="0.4"/>
</linearGradient>
<linearGradient id="paint1_linear_121_126" x1="-25.5789" y1="896.007" x2="1492.94" y2="524.641" gradientUnits="userSpaceOnUse">
<stop stop-color="#0EA5E9"/>
<stop offset="1" stop-color="white" stop-opacity="0.4"/>
</linearGradient>
</defs>
</svg>
